<svg width="300" height="67" viewBox="0 0 300 67" fill="none" xmlns="http://www.w3.org/2000/svg">
<path d="M29.4268 41.9445C29.1597 41.8739 28.9211 41.8109 28.7175 41.7604L30.7155 33.7507C30.9634 33.8125 31.2663 33.8805 31.6094 33.9575C34.6801 34.6465 40.973 36.0586 39.916 40.2971C38.8844 44.4424 32.3958 42.7287 29.4268 41.9445Z" fill="black"></path>
<path d="M41.0414 28.5742C40.1009 32.3419 34.7017 30.901 32.2264 30.2404C32.0014 30.1804 31.8006 30.1268 31.6295 30.0842L33.441 22.8196C33.6487 22.8713 33.903 22.9277 34.1913 22.9914C36.7542 23.5588 42.0018 24.7205 41.0414 28.5742Z" fill="black"></path>
<path fill-rule="evenodd" clip-rule="evenodd" d="M65.774 41.3862C61.3448 59.1519 43.3512 69.9639 25.5835 65.5332C7.82309 61.1041 -2.98881 43.1096 1.44249 25.3451C5.86965 7.57739 23.8633 -3.23556 41.6258 1.19367C59.3926 5.6229 70.2031 23.6196 65.774 41.3862ZM48.2293 28.6395C48.8894 24.2269 45.5297 21.8547 40.9357 20.2723L42.4259 14.2948L38.7874 13.3881L37.3366 19.208C36.38 18.9697 35.3976 18.7448 34.4214 18.5219L35.8826 12.6637L32.2461 11.7569L30.7549 17.7323C29.9631 17.552 29.1859 17.3737 28.4314 17.1862L28.4356 17.1675L23.4177 15.9146L22.4499 19.8008C22.4499 19.8008 25.1495 20.4194 25.0925 20.4578C26.5661 20.8257 26.8324 21.8008 26.7879 22.5739C25.9194 26.0579 25.3301 28.4234 24.6875 31L22.7048 38.9489C22.5244 39.3965 22.0674 40.068 21.0374 39.8131C21.0736 39.866 18.3927 39.153 18.3927 39.153L16.5863 43.318L21.3213 44.4983C21.8412 44.6286 22.355 44.7625 22.8635 44.8951L22.8894 44.9018C23.2337 44.9916 23.5755 45.0808 23.9152 45.1677L22.4094 51.2136L26.0438 52.1206L27.535 46.1388C28.5278 46.4082 29.4916 46.657 30.4347 46.8912L28.9486 52.8449L32.5871 53.7514L34.0929 47.7171C40.2973 48.8913 44.9628 48.4177 46.9266 42.806C48.5091 38.2877 46.8479 35.6813 43.5835 33.9818C45.9608 33.4335 47.7515 31.8697 48.2293 28.6395Z" fill="black"></path>
<path fill-rule="evenodd" clip-rule="evenodd" d="M111.195 19.1952C107.334 17.3242 102.72 17.6146 98.8822 19.3445L103.479 0.201416L91.9802 1.98352L79.1416 55.9283C81.9938 57.3078 85.1483 58.0198 88.2729 58.4556C93.548 59.1684 99.1472 59.0364 104.074 56.8538C109.952 54.2555 114.493 49.4998 116.951 43.5738C119.005 38.6279 119.477 32.8368 118.028 27.6558C116.991 23.9836 114.656 20.881 111.195 19.1952ZM100.288 48.4371C97.602 49.9029 94.5913 49.9108 91.6852 49.3965L96.5795 29.0668C98.1223 27.7108 100.263 27.1345 102.295 27.1345C104.42 27.1345 105.883 27.8051 106.674 29.1383C108.551 32.316 108.097 36.9398 106.896 40.2725C105.684 43.6357 103.468 46.7048 100.288 48.4371Z" fill="black"></path>
<path d="M130.764 57.7892H119.781L129.056 18.76H140.114L130.764 57.7892Z" fill="black"></path>
<path d="M136.109 14.0046C131.456 14.0046 128.823 9.68387 130.722 5.51194C131.98 2.79642 134.728 0.94812 137.74 0.94812C141.029 0.94812 143.746 3.11731 143.746 6.51247C143.746 10.5697 140.155 14.0046 136.109 14.0046Z" fill="black"></path>
<path d="M161.244 7.25378L149.74 9.03586L142.464 39.7549C141.475 43.9662 140.625 48.8966 142.464 52.9972C144.56 57.6235 149.814 58.6743 154.415 58.6743C158.203 58.6743 161.846 57.9784 165.399 56.6761L164.58 48.2136C162.384 48.986 160.086 49.4762 157.753 49.4762C155.92 49.4762 153.644 49.1319 152.856 47.2112C152.118 45.4283 152.532 43.2567 153.007 41.4609L156.269 27.8088H168.514L170.739 18.7582H158.419L161.244 7.25378Z" fill="black"></path>
<path d="M170.254 42.204C170.254 38.8423 170.799 35.6721 171.886 32.7044C172.972 29.7339 174.536 27.1363 176.565 24.9071C180.932 20.1173 187.213 17.7118 193.63 17.7118C197.342 17.7118 201.032 18.3998 204.393 20.0125L200.605 28.6252C198.339 27.7068 196.094 27.0649 193.631 27.0649C189.966 27.0649 187.067 28.3284 184.91 30.8471C182.762 33.3677 181.68 36.7605 181.68 41.0165C181.68 46.0239 184.071 49.4753 189.325 49.4753C191.958 49.4753 194.618 48.9484 197.045 47.9195L197.865 56.7485C194.435 58.0786 190.939 58.8245 187.251 58.8245C182.449 58.8245 177.537 57.5398 174.194 53.8917C172.803 52.3778 171.804 50.6107 171.187 48.582C170.569 46.5552 170.254 44.4259 170.254 42.204Z" fill="black"></path>
<path fill-rule="evenodd" clip-rule="evenodd" d="M219.045 58.8245C225.522 58.8245 231.484 55.8729 235.444 50.738C237.276 48.3603 238.664 45.6848 239.6 42.7263C240.534 39.753 241.005 36.7807 241.005 33.8167C241.005 31.4445 240.686 29.2758 240.041 27.326C237.927 20.8781 232.141 17.7118 225.57 17.7118C219.137 17.7118 213.292 20.7735 209.329 25.806C207.443 28.1781 206.018 30.8471 205.058 33.8176C203.476 38.6793 202.942 44.2871 204.575 49.2141C206.716 55.6703 212.45 58.8245 219.045 58.8245ZM224.534 27.0658C229.034 27.0658 230.03 31.1372 230.03 34.9308C230.03 36.4628 229.818 38.0873 229.403 39.7906C228.305 44.211 225.23 49.4762 220.085 49.4762C213.731 49.4762 214.141 41.1449 215.222 36.7487C215.646 35.0435 216.274 33.4749 217.121 32.0364C218.707 29.3234 221.248 27.0658 224.534 27.0658Z" fill="black"></path>
<path d="M252.974 57.7892H241.981L251.256 18.76H262.32L252.974 57.7892Z" fill="black"></path>
<path d="M258.31 14.0046C253.659 14.0046 251.03 9.67915 252.931 5.51194C254.172 2.79737 256.942 0.94812 259.94 0.94812C263.229 0.94812 265.958 3.11378 265.958 6.51247C265.958 10.5741 262.354 14.0046 258.31 14.0046Z" fill="black"></path>
<path d="M270.235 20.5346L261.252 57.7847H272.312L279.511 27.5861C280.998 27.2892 282.455 27.1353 283.887 27.1353C289.871 27.1353 288.852 33.0203 287.893 37.1553L282.997 57.7857H294.053L299.105 36.7119C300.534 30.8773 300.153 26.274 297.95 22.9105C295.746 19.5469 291.753 17.8601 285.96 17.8601C280.45 17.8601 275.472 19.0048 270.235 20.5346Z" fill="black"></path>

<defs>
<clipPath id="svg-3cd161">
<rect width="300" height="66.8885" fill="white"></rect>
</clipPath>
</defs>
</svg>