<svg width="300" height="79" viewBox="0 0 300 79" fill="currentColor" xmlns="http://www.w3.org/2000/svg"><path d="M90.365 8.27c-.34.099-.703.099-1.043 0A57.292 57.292 0 0 0 54.26 9.91a35.964 35.964 0 0 0-14.004 9.223c-.222.235-.453.53-.75.668-1.14-3.305-2.239-6.625-3.422-9.914a.746.746 0 0 1 .375-1.043 56.168 56.168 0 0 1 19.16-7.418A74.46 74.46 0 0 1 72.658.043 70.91 70.91 0 0 1 98.146 5.61l.293.21c-2.692.814-5.387 1.62-8.074 2.45ZM88.994 38.82V27.852c0-.492-.117-.645-.621-.633h-4.875c-.434 0-.563-.106-.551-.55v-8.813c0-.434.105-.563.54-.551h4.956c.434 0 .563-.106.55-.54v-5.648c0-.398 0-.539.516-.68 2.555-.714 5.086-1.523 7.63-2.343.867-.27 1.78-.457 2.624-.797.586-.234.528.07.528.422v8.508c0 .523 0 .781.128.908.125.123.371.123.856.123h8.508c.527 0 .75 0 .738.68v8.578c0 .574-.164.668-.68.656h-8.824c-.515 0-.738.059-.738.691v18.469a10.966 10.966 0 0 0 .609 3.621 2.383 2.383 0 0 0 1.981 1.371 14.059 14.059 0 0 0 6.14-.984c.453-.174.503-.004.595.307l.003.01c.393 2.343.574 7.555.574 8.823 0 .504-.187.668-.609.809a24.784 24.784 0 0 1-5.684 1.265 14.987 14.987 0 0 1-8.672-1.312c-4.121-2.082-5.732-6.502-6.081-10.851-.307-3.525.023-7.046-.141-10.57ZM77.098 28.854c.469.296.939.593 1.42.873l.69-2.122v-.003c.684-2.11 1.364-4.21 2.11-6.29.281-.785.27-1.113-.504-1.652a18.972 18.972 0 0 0-9.574-3.07c-6.58-.62-13.79 2.212-16.465 8.613-2.133 4.872-.736 10.74 3.446 14.04a24.843 24.843 0 0 0 6.234 3.644 20.401 20.401 0 0 1 5.695 2.87 3.31 3.31 0 0 1 1.172 3.153c-.43 3.342-5.106 3.487-7.617 2.871a20.11 20.11 0 0 1-7.254-3c-.553-.357-.826-.533-1.01-.465-.177.065-.27.357-.455.934l-.673 2.129-.008.023a590.12 590.12 0 0 1-1.897 5.934c-.105.328-.117.515.188.68 1.11.662 2.256 1.26 3.433 1.792a26.097 26.097 0 0 0 12.34 1.793c2.62-.21 5.166-.964 7.477-2.214a12.599 12.599 0 0 0 5.226-5.215 13.688 13.688 0 0 0 1.418-8.402 12.024 12.024 0 0 0-3.187-6.774 20.355 20.355 0 0 0-7.711-4.805 26.707 26.707 0 0 1-5.227-2.484c-.942-.58-1.404-1.652-1.245-2.733a3.051 3.051 0 0 1 2.417-2.529 10.232 10.232 0 0 1 5.25.282c1.595.41 2.95 1.266 4.31 2.127ZM279.047 43.297c-3.197-8.472-6.294-16.977-9.352-25.5a.65.65 0 0 0-.726-.469H257.52c-.504 0-.657.024-.375.598.284.581.422 1.22.668 1.816 4.867 12.152 9.676 24.331 14.636 36.445.691 1.451-.316 2.816-1.054 4.02a19.498 19.498 0 0 1-5.52 6.023 21.99 21.99 0 0 1-5.859 2.684l-.019.007c-.28.112-.412.165-.274.532.997 2.955 1.784 6.003 2.707 8.976.082.246.211.492.597.422a22.714 22.714 0 0 0 7.149-2.46 25.921 25.921 0 0 0 8.801-8.204 55.366 55.366 0 0 0 4.335-7.816c2.726-5.979 5.017-12.137 7.336-18.281 3.04-8.042 6.145-16.064 9.246-24.082.235-.598.082-.68-.48-.68h-11.051a.65.65 0 0 0-.738.54c-2.829 8.486-5.722 16.951-8.578 25.429ZM126.845 18.512a10.44 10.44 0 0 0-2.344 1.933c-.084-.483-.093-.914-.101-1.318-.009-.44-.017-.845-.121-1.248-.106-.54-.27-.54-.668-.54h-8.776c-.594 0-.88 0-1.017.144 0 2.573.195 5.138.195 7.708v34.875c0 .61.153.75.75.75H124.9c.609 0 .738-.164.738-.762v-23.19c-.044-2.995 1.2-6.441 3.82-8.11a6.891 6.891 0 0 1 3.645-1.078c1.387.007 2.766.2 4.101.574.504.129.504-.059.504-.41V17.469c0-.044.01-.098.021-.156.036-.2.08-.442-.267-.442a23.68 23.68 0 0 0-5.765-.176c-1.719.29-3.366.906-4.852 1.817Z"></path><path fill-rule="evenodd" clip-rule="evenodd" d="M50.838 59.527C44.496 40.66 37.943 21.867 31.643 2.985A1.266 1.266 0 0 0 30.318 2h-9.82a1.018 1.018 0 0 0-1.09.82C13.265 21.707 6.175 40.276.166 59.21c-.363 1.172-.199 1.641 1.172 1.606 3.012-.059 6.024 0 9.047 0 1.172 0 1.254-.082 1.606-1.172a5606.45 5606.45 0 0 0 4.945-15.047c.11-.534.63-.904 1.172-.831h14.46a.999.999 0 0 1 1.067.761c1.646 5.133 3.42 10.228 5.133 15.34.175.527.386.984 1.172.984h10.124c.674.012 1.115-.743.774-1.324ZM28.7 33.887H21.87c-1.64 0-1.605-.598-1.242-1.64 1.227-3.563 2.446-7.13 3.656-10.7.16-.48.335-1.187.985-1.09.468.07.61.352.738.75 1.255 3.714 2.56 7.41 3.855 11.11.41 1.171.082 1.558-1.16 1.57ZM218.438 8.562c4.589 5.712 4.817 14.187 1.617 20.602-3.041 5.708-9.141 8.945-15.363 9.937a28.687 28.687 0 0 1-6.105.328h-2.238c-.493-.035-.598.118-.598.598v20.121c.012.55-.129.68-.668.68h-10.055c-.609 0-.75-.153-.75-.75V3.723c0-.504.106-.75.633-.832 6.444-.875 12.969-1.66 19.477-.996 5.289.454 10.616 2.472 14.05 6.667Zm-10.771 18.604c2.754-2.252 3.635-6.04 2.791-9.44a7.086 7.086 0 0 0-3.867-4.874 11.875 11.875 0 0 0-5.192-1.172 34.789 34.789 0 0 0-5.062.105c-.516.059-.621.176-.621.656v16.067c-.024.773.328.937.961.937h3.714c2.501-.014 5.307-.67 7.276-2.28ZM175.161 24.57c-3.922-5.345-10.504-8.2-17.074-8.015a11.974 11.974 0 0 0-2.953.176c-6.455.86-12.273 4.688-15.398 10.441-2.546 4.944-3.577 10.83-2.625 16.336a23.746 23.746 0 0 0 2.906 8.402c3.363 5.713 9.427 9.303 16.008 9.738 8.557.725 17.284-3.74 21.07-11.566a25.565 25.565 0 0 0 2.414-9.984c.264-5.446-1.116-11.091-4.348-15.527Zm-7.418 14.403c.215 5.578-2.584 12.069-8.66 12.984a7.747 7.747 0 0 1-3.289-.277c-4.028-1.24-6.65-5.642-7.035-9.649-1.019-5.589 1.002-14.262 7.524-15.539a8.2 8.2 0 0 1 4.334.072c5.112 1.493 7.266 7.519 7.126 12.409ZM257.027 56.468c.086 1.254.282 2.497.586 3.715.106.375.036.633-.421.692h-9.739c-.539.011-.726-.153-.726-.703a16.646 16.646 0 0 0-.164-1.77 17.323 17.323 0 0 1-17.332 1.969 12.243 12.243 0 0 1-5.449-5.04 13.295 13.295 0 0 1-1.805-6.105 14.295 14.295 0 0 1 2.484-9.375 16.671 16.671 0 0 1 7.16-5.601c4.027-1.758 8.143-2.133 12.439-2.563.415-.042.831-.084 1.249-.12-1.087-7.026-9.309-6.103-14.32-3.575a31.628 31.628 0 0 0-3.2 2.063c-.586.375-.586.14-.738-.305-.644-2.015-1.324-4.006-2.003-5.998l-.001-.002c-.234-.703-.504-1.395-.773-2.086a.557.557 0 0 1 .234-.75A27.555 27.555 0 0 1 234.575 17a29.292 29.292 0 0 1 7.031-.41c2.88.11 5.685.957 8.144 2.46 2.46 1.572 4.36 3.881 5.426 6.598a20.694 20.694 0 0 1 1.418 6.106c.117.738.117 1.476.117 2.203V50.28c.008 2.063.113 4.125.316 6.188Zm-11.594-14.82c.013-.308.025-.6-.101-.8-.377-.604-5.401.549-6 .703a9.937 9.937 0 0 0-4.183 1.863 5.283 5.283 0 0 0-1.559 5.86 3.52 3.52 0 0 0 2.777 2.53 7.035 7.035 0 0 0 3.516 0 7.432 7.432 0 0 0 5.086-4.171c.797-1.687.387-4.15.464-5.985Z"></path></svg>