<svg xmlns="http://www.w3.org/2000/svg" width="209" height="300" fill="none" viewBox="0 0 209 300"><path fill="#000" d="M155.296 84.566c.077.005.165.01.27.011 0 .234.005.459.009.678.009.429.017.835-.009 1.237-.111 1.843-.366 3.662-1.16 5.355-1.351 2.9-3.671 4.361-6.84 4.552-1.987.119-3.178-1.28-3.472-2.956-.382-2.169.302-3.924 2.049-5.267 1.144-.882 2.4-1.589 3.758-2.058 1.251-.435 2.529-.803 3.808-1.17.426-.123.852-.246 1.277-.371a.934.934 0 0 1 .31-.01ZM101.756 85.475c.731 1.303.986 2.725 1.097 4.378l-.008-.008c-3.087.695-6.133 1.379-9.23 2.073l-3.577.803c.023-.205.043-.394.061-.57v-.007c.04-.37.073-.691.122-1.012.254-1.605.707-3.146 1.612-4.529 1.399-2.137 3.417-3.217 5.927-3.368 1.788-.104 3.123.69 3.996 2.24Z"></path><path fill="#000" fill-rule="evenodd" d="M33.718 0h142.715c17.808 0 32.244 14.441 32.244 32.255v142.693c0 17.814-14.436 32.255-32.244 32.255H33.718c-17.808 0-32.245-14.441-32.245-32.255V32.255C1.473 14.441 15.91 0 33.718 0Zm5.778 137.63-.253-.146-.016-.008c-.014.201-.03.383-.044.553-.028.319-.052.594-.052.869v19.163c0 .373 0 .754-.063 1.12-.096.556-.437.802-.977.802-.5-.008-.906-.31-.986-.818-.038-.267-.035-.544-.033-.82l.001-.077V158.124c-.007-8.13-.015-16.252-.015-24.382l.003-.342c.004-.228.007-.455-.003-.683-.143-3.146-2.495-5.569-5.665-5.546-3.488.024-5.657 2.829-5.617 5.768v44.962c-.002.28-.004.56.008.84.096 2.733.819 5.291 2.296 7.595 3.79 5.895 10.042 8.056 16.652 6.721 7.047-1.422 11.75-7.42 11.75-14.634.017-7.849.025-15.707 0-23.556-.015-3.75-1.628-6.745-4.679-8.89-2.769-1.946-5.575-3.841-8.383-5.738-1.09-.737-2.182-1.475-3.272-2.215-.19-.129-.389-.243-.652-.394Zm128.451-37.868-1.077.251c-1.08.252-2.127.495-3.173.734l-.639.145c-1.151.262-2.299.522-3.453.777-.842.191-.937.159-1.271-.643-.226-.535-.425-1.085-.624-1.634v-.001l-.001-.003a58.58 58.58 0 0 0-.265-.722 15.181 15.181 0 0 0-.238-.588c-.056.092-.107.17-.152.24-.077.12-.14.216-.189.316-1.399 2.757-3.623 4.537-6.499 5.561-1.653.588-3.345 1.065-5.093 1.033-3.448-.063-6.094-1.62-7.794-4.639-1.446-2.567-1.771-5.363-1.462-8.24.437-4.067 2.559-7.142 5.872-9.446 2.542-1.763 5.394-2.82 8.381-3.535 1.372-.327 2.751-.634 4.129-.941l.003-.001h.003c.561-.126 1.121-.25 1.681-.377.232-.051.464-.116.69-.18l.359-.098.041-.115c.03-.083.054-.147.054-.203a58.84 58.84 0 0 1-.079-1.266c-.058-1.039-.116-2.08-.302-3.095-.414-2.217-1.899-3.226-4.14-2.94a10.55 10.55 0 0 0-2.256.564c-1.772.644-2.963 1.9-3.225 3.782-.175 1.24-.763 1.676-1.939 1.883-1.593.289-3.17.66-4.749 1.032-.72.17-1.441.34-2.163.501-.171.036-.352.05-.54.062-.101.007-.205.014-.31.026-.217-.93-.059-1.797.096-2.646.021-.117.043-.233.063-.35.755-4.37 3.122-7.603 7.023-9.7 2.971-1.597 6.157-2.447 9.51-2.813 1.732-.19 3.432-.11 5.092.302 3.766.938 5.983 3.433 6.801 7.159.286 1.295.397 2.653.405 3.98.018 2.634.015 5.267.013 7.9-.003 3.444-.005 6.886.035 10.325.016 1.706.293 3.42.567 5.11l.013.078c.084.516.283 1.01.498 1.544.11.272.224.555.328.855l-.024.016Zm-54.61.821.017-.122.019-.125.009-.062.017-.114v-.008c-.131.014-.241.023-.339.031-.174.015-.307.026-.44.056-.704.158-1.408.319-2.112.48-1.812.414-3.623.828-5.443 1.189-.969.19-1.462.588-1.756 1.565-.778 2.59-2.534 4.242-5.22 4.79-1.74.35-3.368.144-4.591-1.326a7.213 7.213 0 0 1-.843-1.232c-.81-1.549-1.207-3.201-1.231-4.941-.008-.803.048-.882.85-1.065 1.168-.262 2.336-.518 3.504-.775 1.167-.256 2.335-.512 3.503-.774 4.457-.993 8.914-1.994 13.371-2.995.849-.193.851-.214.938-1.022l.008-.075c.222-2.09.039-4.17-.255-6.236-.293-2.074-.826-4.092-1.747-5.983-1.542-3.154-3.862-5.402-7.325-6.308-2.153-.564-4.314-.485-6.475-.087-3.44.635-6.539 1.986-9.153 4.353-2.78 2.511-4.552 5.657-5.648 9.2-1.518 4.91-1.693 9.915-.874 14.968.413 2.535 1.2 4.958 2.558 7.167 1.66 2.685 3.956 4.544 7.047 5.323 2.407.611 4.814.421 7.206-.143 3.432-.811 6.514-2.273 9.049-4.775 2.852-2.813 4.401-6.285 5.219-10.146.056-.251.093-.502.137-.808Zm-76.47-10.665c.243.492.22.983.2 1.463a6.232 6.232 0 0 0-.01.58c.021.44.015.881.009 1.385-.004.276-.008.57-.008.894.092-.12.173-.223.247-.317.16-.205.282-.361.396-.525 1.518-2.129 3.29-3.996 5.586-5.299 2.367-1.343 4.901-1.764 7.57-1.271 1.98.365 3.465 1.494 4.561 3.146 1.2 1.804 1.812 3.837 2.034 5.959.207 1.978.31 3.972.334 5.958.026 2.95.017 5.901.009 8.851-.005 1.475-.01 2.95-.01 4.425 0 2.804-.015 5.608-.031 8.411v.002c0 .247-.008.501-.024.747-.016.31-.15.517-.484.588-1.517.336-3.032.674-4.545 1.012h-.004l-.002.001h-.002l-.002.001-.004.001-3.72.828c-.047.01-.1-.006-.181-.03a2.374 2.374 0 0 0-.216-.057v-1.168c0-1.892 0-3.783.002-5.675v-.005c.003-5.678.006-11.358-.018-17.042 0-1.08-.175-2.169-.35-3.241-.08-.509-.31-1.017-.556-1.478-.699-1.287-2.01-1.923-3.448-1.716-2.415.35-4.219 1.589-5.394 3.726-.858 1.549-1.311 3.233-1.502 4.973a42.414 42.414 0 0 0-.246 4.378c-.02 2.877-.018 5.753-.016 8.628v.007c.002 1.64.003 3.28 0 4.919 0 .266-.014.53-.031.835-.008.149-.017.309-.025.483-.131-.056-.248-.101-.354-.142a3.112 3.112 0 0 1-.496-.223 9.215 9.215 0 0 0-4.361-1.216c-.72-.017-1.444.108-2.169.233-.29.05-.583.1-.874.141a4.48 4.48 0 0 0-.59.135c-.12.033-.252.069-.395.103a26.73 26.73 0 0 0-.03-.344 7.328 7.328 0 0 1-.042-.665V92.866c0-.985.008-1.001.993-1.216 1.794-.397 3.585-.787 5.377-1.177l2.361-.515c.093-.02.19-.031.294-.043a6.55 6.55 0 0 0 .175-.02l-.008.023Zm162.771-23.592.613-.138h.016c-.04-.242-.069-.464-.097-.672a7.988 7.988 0 0 0-.181-1.036c-1.168-4.401-3.718-7.556-8.167-8.946-2.153-.675-4.362-.627-6.563-.278-3.472.556-6.538 1.97-9.089 4.425-2.74 2.646-4.417 5.92-5.442 9.542-1.358 4.823-1.485 9.709-.683 14.626.413 2.535 1.168 4.966 2.519 7.182 1.612 2.638 3.861 4.457 6.88 5.236 2.415.628 4.814.429 7.206-.143 3.257-.779 6.26-2.082 8.731-4.41 3.233-3.026 4.687-6.895 5.18-11.194a6.63 6.63 0 0 0 .009-.835v-.001a13.193 13.193 0 0 1-.009-.45c-.081 0-.153-.005-.219-.009a1.132 1.132 0 0 0-.306.008c-.879.199-1.757.401-2.635.603h-.002c-1.756.405-3.512.809-5.275 1.185-.557.12-.771.365-.874.898-.231 1.16-.596 2.288-1.2 3.32-.826 1.415-2.002 2.344-3.575 2.821-2.614.787-4.457-.334-5.458-2.193-.429-.786-.795-1.628-1.017-2.494-1.081-4.195-1.12-8.438-.278-12.68.318-1.629.882-3.178 1.803-4.576 1.033-1.566 2.447-2.535 4.306-2.853 1.843-.317 3.448.366 4.362 1.995.263.476.452.992.64 1.508.079.216.158.432.242.645.051.13.096.259.149.409.038.107.079.225.129.361 2.756-.615 5.464-1.223 8.285-1.856ZM74.056 74.18v7.262l1.309-.285c1.708-.372 3.346-.728 5.04-1.09.01.15.023.28.034.397.02.216.037.393.037.573a818.59 818.59 0 0 1-.048 6.26c-.008.882-.04.922-.906 1.12-.891.205-1.782.401-2.674.598-.594.13-1.188.262-1.783.395-.287.062-.567.14-.893.233l-.163.045a9.813 9.813 0 0 1-.01.112l-.014.132v.001c-.02.193-.04.383-.04.574-.008 6.387-.016 12.775-.008 19.162 0 .557.064 1.121.19 1.661.255 1.104.915 1.581 2.05 1.406.632-.093 1.256-.255 1.88-.417h.001c.279-.072.557-.144.837-.211.193-.047.387-.104.607-.169.115-.034.237-.071.37-.109.017.115.037.222.057.324.037.188.07.36.07.534.005.644.007 1.288.009 1.931.003 1.287.007 2.574.039 3.861.016.691-.239 1.073-.874 1.351-1.804.786-3.655 1.454-5.601 1.716-3.917.524-7.055-1.494-8.326-5.244-.453-1.342-.604-2.725-.604-4.139.016-6.356.016-12.712.016-19.075V91.88c-.102.005-.196.007-.284.009a2.624 2.624 0 0 0-.495.039c-.649.136-1.295.28-1.941.426-.446.1-.892.2-1.34.297a6.972 6.972 0 0 1-.558.088c-.133.018-.277.037-.435.063l-.03-.45c-.025-.36-.047-.688-.042-1.012.012-1.424.038-2.849.063-4.273l.025-1.424v-.025c.016-.88.016-.898.882-1.095.576-.135 1.152-.264 1.728-.393.576-.13 1.152-.258 1.728-.393.739-.175.754-.191.762-.922.01-1.038.007-2.076.004-3.113-.002-.52-.004-1.04-.004-1.558v-.938c.016-.953.032-.977.938-1.184 1.573-.357 3.154-.715 4.727-1.064 1.058-.235 2.123-.457 3.365-.715l.305-.064Zm-58.59 60.081 5.965-1.345h.008c.222-1.144.182-51.927-.04-52.666-.125.021-.252.039-.38.057a8.13 8.13 0 0 0-.613.102l-2.04.45h-.004c-1.715.377-3.433.753-5.138 1.163a11.83 11.83 0 0 1-.544.114c-.308.06-.488.095-.594.203-.15.153-.15.454-.15 1.18v50.064c0 .07 0 .141-.002.212-.003.178-.006.359.01.535.01.125.043.251.081.4.023.087.047.183.07.291l3.371-.76Zm111.185-58.532c1.334-4.616 4.568-6.943 9.208-7.793.015.13.033.248.049.36.033.23.062.427.062.625l.002 2.898c.001 1.93.003 3.86-.002 5.793 0 .85-.032.89-.818 1.113-4.648 1.279-7.222 4.44-8.08 9.065a27.575 27.575 0 0 0-.445 4.64c-.063 3.74-.084 7.475-.106 11.213V103.653c-.009 1.491-.018 2.983-.029 4.475v.278c-.016.969-.024.977-.93 1.184-1.001.222-2.002.453-3.003.683a348.78 348.78 0 0 1-4.274.961c-.198.042-.399.063-.597.084a9.696 9.696 0 0 0-.309.036c-.198-.707-.27-38.04-.071-39.557 1.927-.504 3.891-.93 5.893-1.364.935-.203 1.878-.407 2.83-.623.299.674.308 1.363.317 2.038.004.312.008.622.041.926.072.665.055 1.341.038 2.016-.007.292-.015.585-.015.876l.239.071v-.008ZM21.905 168.986l1.48-.359h-.008v-8.802c-.094.008-.18.012-.262.016-.16.008-.3.016-.437.047-.938.207-1.867.429-2.805.66-.557.137-1.118.268-1.679.398-1.222.284-2.446.569-3.644.928-2.145.644-3.336 2.916-2.812 5.117.556 2.344 2.98 3.646 4.87 3.225l.477-.1h.001c.477-.1.953-.2 1.429-.313 1.12-.267 2.238-.538 3.385-.816l.005-.001Zm1.488-31.526.024.341c.017.212.031.394.031.581v6.904c0 .953 0 .961-.905 1.183l-.89.221h-.002c-1.6.396-3.198.792-4.813 1.154-2.216.492-4.473-.906-5.069-3.083-.611-2.24.604-4.655 2.829-5.267 1.954-.537 3.933-.993 5.91-1.449.804-.185 1.607-.371 2.408-.561.073-.015.147-.017.246-.021.062-.002.134-.005.223-.011l.008.008Zm-.008 19.981v-8.882c-.347.08-.674.154-.987.224l-.011.002-.003.001h-.001l-.004.001c-.52.117-1.006.226-1.489.344-.578.139-1.156.275-1.735.41-1.476.346-2.953.692-4.414 1.092-2.304.635-3.591 2.963-2.987 5.259a4.318 4.318 0 0 0 5.116 3.107c.942-.207 1.88-.435 2.817-.662h.002v-.001l1.074-.259c.537-.133 1.077-.263 1.62-.394.333-.08.667-.16 1.002-.242Z" clip-rule="evenodd"></path><path fill="#000" d="M26.456 224.659h1.986v1.732h.048a5.901 5.901 0 0 1 1.89-1.501c.724-.358 1.51-.533 2.376-.533.93 0 1.788.159 2.558.469.771.31 1.43.747 1.97 1.311a5.99 5.99 0 0 1 1.272 1.986c.302.763.46 1.597.46 2.495 0 .898-.15 1.732-.46 2.494a6.171 6.171 0 0 1-1.255 1.987 5.84 5.84 0 0 1-1.891 1.31c-.731.31-1.51.469-2.336.469-1.065 0-2.002-.23-2.812-.699-.803-.469-1.39-1.041-1.764-1.716h-.048v7.905h-1.986v-17.693l-.008-.016Zm1.986 5.951c0 .627.096 1.207.294 1.74a3.975 3.975 0 0 0 2.185 2.335c.516.231 1.096.342 1.74.342.643 0 1.223-.111 1.74-.342a3.986 3.986 0 0 0 2.185-2.335 5.13 5.13 0 0 0 .293-1.74c0-.628-.095-1.208-.293-1.74a4.106 4.106 0 0 0-.85-1.398 3.978 3.978 0 0 0-1.335-.938c-.517-.23-1.097-.341-1.74-.341-.644 0-1.224.111-1.74.341a3.985 3.985 0 0 0-2.185 2.336 4.937 4.937 0 0 0-.294 1.74ZM42.091 227.487c0-.54-.016-1.048-.047-1.525a19.567 19.567 0 0 1-.048-1.295h1.883c0 .326.008.643.024.969.016.326.023.652.023.993h.048c.135-.286.326-.564.572-.842.246-.27.54-.508.874-.723a4.754 4.754 0 0 1 2.519-.699c.135 0 .27.008.405.024s.27.048.405.103l-.127 2.01a3.678 3.678 0 0 0-1.065-.151c-1.223 0-2.105.397-2.653 1.184-.549.787-.827 1.867-.827 3.241v5.8h-1.986v-9.089ZM49.893 230.609c0-.929.159-1.779.485-2.542a6.08 6.08 0 0 1 1.318-1.97 5.954 5.954 0 0 1 2.01-1.287 6.984 6.984 0 0 1 2.543-.461c.913 0 1.764.151 2.542.461.779.301 1.446.73 2.01 1.287a5.917 5.917 0 0 1 1.319 1.97c.318.763.485 1.613.485 2.542 0 .93-.16 1.78-.485 2.543a6.09 6.09 0 0 1-1.319 1.97 5.985 5.985 0 0 1-2.01 1.287 6.984 6.984 0 0 1-2.542.461c-.914 0-1.764-.151-2.543-.461a5.822 5.822 0 0 1-2.01-1.287 5.927 5.927 0 0 1-1.318-1.97 6.563 6.563 0 0 1-.485-2.543Zm2.137 0c0 .628.095 1.208.294 1.74.199.532.477 1.001.85 1.398.373.398.818.715 1.335.938.516.23 1.096.342 1.74.342.643 0 1.223-.112 1.74-.342a3.986 3.986 0 0 0 2.185-2.336c.19-.532.293-1.112.293-1.74 0-.627-.095-1.207-.294-1.74a3.974 3.974 0 0 0-2.185-2.335 4.347 4.347 0 0 0-1.74-.342c-.643 0-1.223.111-1.74.342a3.986 3.986 0 0 0-2.185 2.335 4.945 4.945 0 0 0-.293 1.74ZM74.148 227.638c-.42-.509-.881-.874-1.374-1.104a3.777 3.777 0 0 0-1.629-.342c-.66 0-1.247.111-1.755.342a3.36 3.36 0 0 0-1.256.953c-.326.405-.58.874-.746 1.414a5.703 5.703 0 0 0-.255 1.716c0 .612.096 1.184.294 1.716a4.85 4.85 0 0 0 .81 1.414c.35.406.763.723 1.256.954.492.23 1.04.341 1.652.341 1.303 0 2.312-.492 3.027-1.477l1.478 1.398c-.58.659-1.255 1.144-2.034 1.446a6.778 6.778 0 0 1-2.463.461c-.913 0-1.756-.151-2.518-.461a5.435 5.435 0 0 1-1.947-1.295 6.073 6.073 0 0 1-1.247-1.986 6.96 6.96 0 0 1-.445-2.519c0-.913.151-1.732.445-2.494a5.913 5.913 0 0 1 1.255-1.987 5.828 5.828 0 0 1 1.947-1.31c.754-.31 1.589-.469 2.502-.469.914 0 1.716.151 2.503.461a5.465 5.465 0 0 1 2.074 1.422l-1.573 1.398v.008ZM88.56 234.399c-.715.914-1.494 1.558-2.336 1.923-.85.366-1.827.548-2.947.548-.93 0-1.772-.167-2.519-.492a5.74 5.74 0 0 1-1.89-1.335 5.809 5.809 0 0 1-1.192-1.986 7.056 7.056 0 0 1-.421-2.439c0-.914.15-1.756.46-2.527a5.92 5.92 0 0 1 1.272-1.986 5.797 5.797 0 0 1 1.93-1.287 6.439 6.439 0 0 1 2.44-.461 6.14 6.14 0 0 1 2.287.421 4.922 4.922 0 0 1 1.796 1.224c.5.54.882 1.184 1.16 1.954.278.771.405 1.653.405 2.63v.636h-9.613c.032.508.159.993.365 1.461.207.469.485.874.826 1.224.342.349.74.62 1.192.826.461.207.953.302 1.502.302.866 0 1.589-.151 2.184-.461.596-.302 1.129-.754 1.605-1.35l1.502 1.168-.008.007Zm-1.7-4.854c-.032-1.017-.366-1.827-.993-2.439-.628-.612-1.494-.913-2.59-.913-1.097 0-1.994.301-2.67.913-.675.612-1.088 1.422-1.223 2.439h7.476ZM92.326 233.43c.39.492.818.882 1.287 1.168.469.286 1.056.429 1.764.429.302 0 .611-.032.93-.104.309-.063.595-.174.85-.333.254-.151.46-.342.611-.572.15-.231.23-.501.23-.827 0-.325-.071-.587-.214-.786a2.027 2.027 0 0 0-.572-.524 3.094 3.094 0 0 0-.81-.342c-.302-.087-.62-.159-.938-.23a21.894 21.894 0 0 1-1.605-.406 5.158 5.158 0 0 1-1.335-.595 2.846 2.846 0 0 1-.913-.954c-.23-.389-.342-.89-.342-1.501 0-.572.127-1.081.381-1.526a3.435 3.435 0 0 1 1.017-1.096 4.968 4.968 0 0 1 1.422-.66 5.845 5.845 0 0 1 1.63-.23c.85 0 1.628.167 2.35.508.724.342 1.288.89 1.693 1.653l-1.652 1.096a3.184 3.184 0 0 0-1.001-1.032c-.414-.263-.922-.398-1.51-.398-.27 0-.548.032-.826.104a2.612 2.612 0 0 0-.747.301c-.215.136-.405.31-.548.525a1.267 1.267 0 0 0-.215.723c0 .254.08.469.239.651.159.175.381.334.659.469.278.135.604.254.97.358.365.103.738.19 1.127.254.525.103 1.025.23 1.502.397.477.167.89.373 1.247.651.358.271.636.612.843 1.017.206.406.301.906.301 1.502 0 .675-.135 1.255-.405 1.732-.27.477-.627.858-1.08 1.16a4.862 4.862 0 0 1-1.526.651 7.554 7.554 0 0 1-1.74.207c-1.017 0-1.89-.159-2.63-.469-.738-.31-1.405-.89-1.993-1.74l1.573-1.223-.024-.008ZM103.154 233.43c.39.492.819.882 1.287 1.168.469.286 1.057.429 1.764.429.302 0 .612-.032.93-.104a2.55 2.55 0 0 0 .85-.333 1.85 1.85 0 0 0 .612-.572c.151-.231.23-.501.23-.827 0-.325-.072-.587-.215-.786a2.017 2.017 0 0 0-.572-.524 3.086 3.086 0 0 0-.81-.342c-.302-.087-.62-.159-.937-.23a21.718 21.718 0 0 1-1.605-.406 5.145 5.145 0 0 1-1.335-.595 2.856 2.856 0 0 1-.914-.954c-.23-.389-.341-.89-.341-1.501 0-.572.127-1.081.381-1.526a3.433 3.433 0 0 1 1.017-1.096 4.97 4.97 0 0 1 1.422-.66 5.85 5.85 0 0 1 1.629-.23c.85 0 1.629.167 2.351.508.723.342 1.288.89 1.693 1.653l-1.653 1.096a3.183 3.183 0 0 0-1.001-1.032c-.413-.263-.921-.398-1.509-.398a3.3 3.3 0 0 0-.827.104 2.602 2.602 0 0 0-.746.301 1.82 1.82 0 0 0-.549.525 1.267 1.267 0 0 0-.214.723c0 .254.079.469.238.651.159.175.382.334.66.469.278.135.603.254.969.358.365.103.739.19 1.128.254a10.9 10.9 0 0 1 1.502.397c.476.167.889.373 1.247.651.357.271.636.612.842 1.017.207.406.302.906.302 1.502 0 .675-.135 1.255-.405 1.732-.27.477-.628.858-1.081 1.16a4.862 4.862 0 0 1-1.525.651 7.554 7.554 0 0 1-1.74.207c-1.017 0-1.891-.159-2.63-.469-.739-.31-1.406-.89-1.994-1.74l1.573-1.223-.024-.008ZM124.359 234.399c-.715.914-1.494 1.558-2.336 1.923-.85.366-1.827.548-2.947.548-.93 0-1.772-.167-2.519-.492a5.755 5.755 0 0 1-1.891-1.335 5.812 5.812 0 0 1-1.191-1.986 7.059 7.059 0 0 1-.421-2.439c0-.914.151-1.756.461-2.527.301-.77.73-1.43 1.271-1.986a5.791 5.791 0 0 1 1.93-1.287 6.439 6.439 0 0 1 2.439-.461c.827 0 1.589.143 2.288.421a4.92 4.92 0 0 1 1.796 1.224c.5.54.882 1.184 1.16 1.954.278.771.405 1.653.405 2.63v.636h-9.613c.032.508.159.993.365 1.461.207.469.485.874.827 1.224.341.349.738.62 1.191.826.461.207.954.302 1.502.302.866 0 1.589-.151 2.185-.461.595-.302 1.128-.754 1.604-1.35l1.502 1.168-.008.007Zm-1.7-4.854c-.032-1.017-.366-1.827-.993-2.439-.628-.612-1.494-.913-2.59-.913-1.097 0-1.994.301-2.67.913-.675.612-1.088 1.422-1.223 2.439h7.476ZM137.754 234.447h-.048c-.373.675-.961 1.247-1.763 1.716-.803.468-1.74.699-2.813.699a5.93 5.93 0 0 1-2.343-.469 5.54 5.54 0 0 1-1.891-1.311 6.073 6.073 0 0 1-1.256-1.986 6.751 6.751 0 0 1-.46-2.495c0-.897.151-1.732.46-2.494a6.065 6.065 0 0 1 1.272-1.986 5.754 5.754 0 0 1 1.97-1.311c.771-.31 1.621-.469 2.55-.469.866 0 1.661.175 2.376.532.723.358 1.35.858 1.891 1.502h.047v-9.049h1.986v19.218h-1.986v-2.113l.008.016Zm0-3.838c0-.627-.095-1.207-.294-1.74a4.087 4.087 0 0 0-.85-1.398 3.966 3.966 0 0 0-1.335-.937 4.345 4.345 0 0 0-1.74-.342c-.643 0-1.223.111-1.739.342-.517.23-.962.54-1.335.937-.374.397-.66.866-.85 1.398a5.123 5.123 0 0 0-.294 1.74c0 .628.095 1.208.294 1.74.198.533.476 1.001.85 1.399.373.397.818.715 1.335.937.516.23 1.096.342 1.739.342.644 0 1.224-.112 1.74-.342.517-.23.962-.54 1.335-.937.374-.398.66-.866.85-1.399a5.115 5.115 0 0 0 .294-1.74ZM150.362 217.342h1.986v9.049h.048a5.9 5.9 0 0 1 1.891-1.501c.723-.358 1.509-.533 2.375-.533.93 0 1.788.159 2.559.469.77.31 1.43.747 1.97 1.311s.969 1.223 1.271 1.986c.302.763.461 1.597.461 2.495 0 .897-.151 1.732-.461 2.494a6.188 6.188 0 0 1-1.255 1.987 5.847 5.847 0 0 1-1.891 1.31 5.76 5.76 0 0 1-2.336.469c-1.064 0-2.002-.23-2.812-.699-.803-.469-1.399-1.041-1.764-1.716h-.048v2.113h-1.986v-19.218l-.008-.016Zm1.986 13.268c0 .627.096 1.207.294 1.74.199.532.477 1.001.85 1.398.374.397.819.715 1.335.937.517.231 1.097.342 1.74.342.644 0 1.224-.111 1.74-.342.516-.23.961-.54 1.335-.937.373-.397.659-.866.85-1.398a4.958 4.958 0 0 0 .294-1.74 4.95 4.95 0 0 0-.294-1.74 4.118 4.118 0 0 0-.85-1.398 3.989 3.989 0 0 0-1.335-.938c-.516-.23-1.096-.342-1.74-.342-.643 0-1.223.112-1.74.342-.516.231-.961.54-1.335.938a3.996 3.996 0 0 0-.85 1.398 5.14 5.14 0 0 0-.294 1.74ZM170.375 239.277c-.207.509-.413.969-.62 1.382a4.262 4.262 0 0 1-.763 1.065 3.019 3.019 0 0 1-1.064.683c-.413.159-.922.239-1.51.239a9.03 9.03 0 0 1-.905-.048 2.48 2.48 0 0 1-.874-.254l.254-1.732c.207.087.413.143.636.167.222.023.476.039.762.039.644 0 1.12-.174 1.422-.532.302-.357.564-.834.787-1.422l.81-2.24-4.933-11.973h2.311l3.687 9.327h.048l3.535-9.327h2.161l-5.744 14.618v.008Z"></path><path fill="#000" fill-rule="evenodd" d="M2.543 259.156c0-4.614 3.524-7.464 7.863-7.464l-.008.008h34.406c4.992 0 7.315 4.448 7.315 7.487v33.204c0 3.795-2.84 7.606-7.364 7.606H10.148c-5.412 0-7.605-4.252-7.605-7.977v-32.864Zm23.683 2.429c-3.067.453-5.967 1.939-8.176 4.108v.008a13.976 13.976 0 0 0-3.058 4.393 13.32 13.32 0 0 0-.93 3.107 14.576 14.576 0 0 0-.032 4.663c.715 4.576 3.862 8.644 8 10.702a13.813 13.813 0 0 0 4.402 1.358c3.885.509 7.96-.691 10.948-3.225 2.987-2.535 4.838-6.364 4.965-10.281.016-.516-.015-1.088-.365-1.478-.405-.452-1.096-.484-1.708-.484H28.736a60.71 60.71 0 0 0 1.263 3.082c.135.31.286.628.556.835.35.262.819.286 1.256.286l2.547.027c.864.01 1.728.02 2.593.028-.127 1.883-1.104 3.663-2.542 4.878-1.43 1.216-3.297 1.883-5.18 1.987-3.822.214-7.675-2.01-9.399-5.427-1.716-3.424-1.2-7.849 1.28-10.765 2.478-2.916 6.776-4.147 10.415-2.971 1.16.373 2.24.969 3.225 1.692l.036.026c.259.191.527.389.846.427.334.032.66-.111.961-.27a16.064 16.064 0 0 0 2.996-2.034c-3.385-3.551-8.51-5.387-13.363-4.672Z" clip-rule="evenodd"></path><path fill="#000" d="M63.351 267.743c1.764-1.724 4.068-2.908 6.507-3.266 3.861-.572 7.945.89 10.638 3.718a12.132 12.132 0 0 1-2.391 1.613c-.239.127-.5.246-.763.215-.262-.032-.492-.207-.707-.358-.779-.572-1.645-1.049-2.566-1.342-2.9-.938-6.316.039-8.294 2.367-1.97 2.32-2.384 5.847-1.017 8.565 1.366 2.725 4.44 4.488 7.484 4.313 1.493-.087 2.979-.611 4.123-1.581 1.144-.969 1.922-2.383 2.018-3.885l-4.092-.047c-.35 0-.723-.016-1-.231-.215-.166-.334-.421-.446-.667a46.673 46.673 0 0 1-1-2.455h9.183c.485 0 1.033.024 1.359.389.278.31.302.763.286 1.176-.103 3.115-1.573 6.165-3.957 8.183-2.375 2.018-5.624 2.972-8.715 2.566a11.063 11.063 0 0 1-3.504-1.08c-3.289-1.637-5.8-4.87-6.371-8.517a11.4 11.4 0 0 1 .032-3.71c.15-.85.397-1.684.738-2.471a11.135 11.135 0 0 1 2.44-3.495M97.712 267.743c1.764-1.724 4.068-2.908 6.507-3.266 3.861-.572 7.945.89 10.638 3.718a12.132 12.132 0 0 1-2.391 1.613c-.239.127-.501.246-.763.215-.262-.032-.492-.207-.707-.358-.779-.572-1.645-1.049-2.566-1.342-2.9-.938-6.316.039-8.294 2.367-1.97 2.32-2.384 5.847-1.017 8.565 1.366 2.725 4.441 4.488 7.484 4.313 1.493-.087 2.979-.611 4.123-1.581 1.144-.969 1.923-2.383 2.018-3.885l-4.092-.047c-.349 0-.723-.016-1.001-.231-.214-.166-.333-.421-.445-.667a47.283 47.283 0 0 1-1.001-2.455h9.184c.485 0 1.033.024 1.359.389.278.31.302.763.286 1.176-.103 3.115-1.573 6.165-3.956 8.183-2.376 2.018-5.625 2.972-8.716 2.566a11.061 11.061 0 0 1-3.503-1.08c-3.29-1.637-5.8-4.87-6.372-8.517a11.403 11.403 0 0 1 .032-3.71c.15-.85.397-1.684.738-2.471a11.135 11.135 0 0 1 2.44-3.495M90.006 286.635h-3.591v-21.88h2.391c.66 0 1.2.541 1.2 1.2v20.68ZM131.104 268.91l6.761 17.725h3.949l-8.088-20.712a1.851 1.851 0 0 0-1.716-1.176h-4.386l-8.675 21.991h4.075l1.883-4.862h7.818l-1.025-2.463a1.159 1.159 0 0 0-1.08-.707h-3.822a.459.459 0 0 1-.429-.627l3.536-9.153c.214-.548.993-.548 1.199 0M178.328 268.934a.643.643 0 0 1 1.199 0l6.753 17.693h3.965l-8.088-20.712a1.851 1.851 0 0 0-1.716-1.176h-4.385l-8.676 21.992h4.076l1.882-4.863h7.818l-1.025-2.463a1.166 1.166 0 0 0-1.08-.707h-3.814a.459.459 0 0 1-.429-.627l3.528-9.137h-.008ZM154.605 264.851h-8.882v21.776h3.702v-18.05c0-.302.246-.556.556-.556h3.877c4.163 0 7.73 3.217 7.873 7.364a7.642 7.642 0 0 1-5.942 7.715c-.286.063-.827.111-1.288.143a1.247 1.247 0 0 0-1.072.762l-1.12 2.622h1.986c5.935 0 10.995-4.616 11.194-10.542.207-6.197-4.759-11.29-10.908-11.29M188.855 264.747v3.282h7.102c.286 0 .509.23.509.508v18.201h3.702v-18.201c0-.286.23-.508.508-.508h5.681c.62 0 1.184-.382 1.406-.954l.914-2.328h-19.83.008Z"></path></svg>