<svg width="300" height="72" viewBox="0 0 300 72" fill="none" xmlns="http://www.w3.org/2000/svg">
<path d="M51.8533 0.316406C23.2809 0.316406 0.166016 13.8533 0.166016 30.6595C0.166016 37.7856 4.34628 44.2815 11.4297 49.5686C7.94762 45.2521 5.97243 40.4674 5.97243 35.3336C5.97243 17.9399 28.619 3.8326 56.5016 3.8326C74.5 3.8326 90.3015 9.67305 99.2407 18.5444C91.2632 7.78298 72.9929 0.316406 51.8533 0.316406Z" fill="black"></path>
<path fill-rule="evenodd" clip-rule="evenodd" d="M151.117 47.5243V38.8232H159.733C165.778 38.8232 170.546 37.3078 174.036 34.2769C177.527 31.246 179.269 26.9891 179.264 21.5062C179.264 15.9666 177.339 11.6558 173.491 8.57383C169.853 5.64507 164.932 4.17785 158.729 4.17218H147.201C141.496 4.17218 138.355 6.43855 138.355 12.3454V47.4988C138.355 52.9874 140.481 55.7347 144.732 55.7402C148.983 55.7457 151.112 53.0074 151.117 47.5243ZM151.117 14.8399H156.651C162.497 14.8399 165.42 17.0535 165.42 21.4807C165.42 26.0214 162.497 28.2917 156.651 28.2917H151.117V14.8399Z" fill="black"></path>
<path fill-rule="evenodd" clip-rule="evenodd" d="M215.19 55.7407C219.282 55.7407 221.331 52.9849 221.337 47.4735V24.7162C221.337 19.2504 219.288 16.5175 215.19 16.5175C213.964 16.5031 212.757 16.8288 211.706 17.4586C210.654 18.0883 209.797 18.9973 209.23 20.0847C207.951 18.7333 206.397 17.6722 204.673 16.973C202.948 16.2739 201.094 15.953 199.235 16.0322C193.879 15.9026 188.637 18.2463 185.162 22.3239C181.754 26.0854 179.898 30.9985 179.968 36.0736C179.857 43.6232 184.209 51.256 191.17 54.42C193.567 55.5087 196.178 56.0446 198.809 55.9871C203.219 55.9871 206.705 54.5685 209.264 51.7302C210.499 54.3865 212.466 55.7147 215.224 55.7147L215.19 55.7407ZM194.799 29.7308C196.214 27.8642 198.503 26.7805 200.844 26.8702C202.009 26.8146 203.169 27.0465 204.224 27.5453C207.335 29.0176 208.856 32.6448 208.754 35.9544C208.823 38.1936 208.179 40.3968 206.915 42.2461C205.54 44.1683 203.23 45.2902 200.87 45.1833C199.687 45.231 198.511 44.9882 197.443 44.4762C194.309 42.9723 192.731 39.3057 192.833 35.9544C192.775 33.7144 193.477 31.5208 194.825 29.7308H194.799Z" fill="black"></path>
<path d="M250.171 20.996L242.56 39.0282L235.485 22.0006C234.503 19.053 232.6 16.3032 229.185 16.4922C227.583 16.4421 226.025 17.0194 224.843 18.1013C222.851 19.9204 222.735 22.8952 223.829 25.2358L236.362 51.8582L231.254 61.9811C229.966 64.4622 229.643 67.7773 231.934 69.7717C233.193 70.7879 234.78 71.3088 236.396 71.2358C238.604 71.2358 240.426 69.7202 241.861 66.6894L260.856 25.8233C261.464 24.6041 261.804 23.2686 261.852 21.907C261.852 18.3142 259.8 16.5178 255.696 16.5178C253.338 16.5178 251.525 18.0162 250.239 20.996H250.171Z" fill="black"></path>
<path d="M292.334 44.691H280.057L296.565 25.4073C298.267 23.4492 299.119 21.7946 299.119 20.4438C299.264 19.1699 298.432 17.9449 297.195 17.6087C295.26 17.1359 293.268 16.9353 291.278 17.0127H271.33C266.046 17.0127 263.403 18.7155 263.403 22.121C263.403 25.5265 266.02 27.252 271.253 27.2974H281.972L264.945 47.3558C263.826 48.5338 263.17 50.0753 263.097 51.6978C263.097 54.0192 265.276 55.1829 269.636 55.1884H292.317C297.549 55.1884 300.166 53.4659 300.166 50.0208C300.166 46.4789 297.581 44.7052 292.41 44.6995L292.334 44.691Z" fill="black"></path>
<path fill-rule="evenodd" clip-rule="evenodd" d="M112.694 56.3206C101.313 56.3206 91.2816 47.9058 91.5803 36.1088C91.2989 24.5617 101.327 15.7949 112.652 15.7949C124.009 15.8051 133.97 24.4908 133.664 36.0747C134.028 47.6573 124.035 56.3206 112.694 56.3206ZM104.444 36.0236C104.294 40.7409 107.547 45.8141 112.669 45.6016C117.846 45.8358 121.077 40.7985 120.902 36.0236C121.029 31.3212 117.759 26.3152 112.669 26.5222C107.491 26.2704 104.289 31.2439 104.444 36.0236Z" fill="black"></path>
<path fill-rule="evenodd" clip-rule="evenodd" d="M47.3057 39.2409C49.1046 39.3344 50.8886 38.8706 52.4142 37.9127C53.8544 37.0054 54.7183 35.3564 54.6447 33.6559C54.6312 30.1678 53.4335 26.7877 51.2475 24.0693C47.237 18.8501 40.9009 15.8068 34.3308 15.8961C28.2235 15.8961 23.2118 17.8826 19.2954 21.8557C17.3937 23.7216 15.8915 25.9548 14.8801 28.4196C13.8687 30.8844 13.3694 33.5291 13.4124 36.193C13.3636 38.8662 13.8876 41.519 14.9494 43.9729C18.3422 51.8144 26.5863 56.1502 34.9267 56.1577C38.1296 56.1812 41.3179 55.7253 44.3855 54.804C47.967 53.7313 50.5807 52.1707 52.2268 50.1217C53.0716 49.2026 53.5629 48.0141 53.6144 46.7671C53.6144 43.8327 51.9743 42.3626 48.6935 42.3569C47.9698 42.3569 46.1394 42.9784 43.1511 44.2129C40.7562 45.3122 38.172 45.9395 35.5397 46.0605C32.4174 46.1814 28.7592 45.0017 27.0793 42.1888C26.5585 41.317 26.2433 40.338 26.1575 39.326L47.3057 39.2409ZM28.8479 26.9725C30.4138 25.7105 32.3803 25.052 34.3903 25.1165C37.2758 25.0412 40.2878 26.5406 41.6413 29.1505C42.0706 29.9784 42.3238 30.8863 42.3848 31.8169H26.0043C26.3583 29.9199 27.3642 28.2064 28.8479 26.9725Z" fill="black"></path>
<path d="M76.6043 56.0901C64.933 56.1003 56.0005 47.9274 56.0005 36.0741C56.0005 30.1825 57.9475 25.3581 61.841 21.6006C65.7345 17.8432 70.8997 15.9617 77.3361 15.956C80.3413 15.8962 83.3331 16.369 86.1733 17.3523C89.2909 18.5421 92.4408 21.5133 90.9166 25.0845C89.4323 28.5552 85.2938 28.3922 82.3253 27.1772C80.7387 26.5964 79.0596 26.308 77.3701 26.3258C74.8657 26.1899 72.3934 27.3003 70.8317 29.263C69.4066 31.1704 68.6768 33.5075 68.7628 35.8867C68.4845 41.3284 72.4328 45.4392 77.8384 45.4392C79.4915 45.4517 81.1331 45.1632 82.6827 44.5878C83.8524 44.0904 85.1001 43.8023 86.3693 43.7365C89.0526 43.6205 91.2454 45.9106 91.1965 48.5808C91.2025 50.8684 89.46 52.8034 85.9694 54.387C82.9991 55.5982 79.81 56.178 76.6043 56.0901Z" fill="black"></path>

<defs>
<clipPath id="svg-6ba230">
<rect width="300" height="71.381" fill="white"></rect>
</clipPath>
</defs>
</svg>