<svg xmlns="http://www.w3.org/2000/svg" width="300" height="233" fill="none" viewBox="0 0 300 233"><path fill="#000" d="M149.871 43.828c-21.373 16.996-35.279 43.262-35.279 72.876 0 29.614 13.906 56.137 35.279 72.875-15.708 12.361-35.536 19.829-57.167 19.829C41.459 209.408 0 167.949 0 116.704 0 65.459 41.46 24 92.704 24c21.631 0 41.459 7.468 57.167 19.828ZM300 116.704c0 51.245-41.459 92.704-92.704 92.704-21.631 0-41.459-7.468-57.167-19.829 21.631-16.995 35.279-43.261 35.279-72.875 0-29.614-13.906-55.88-35.279-72.876C165.837 31.468 185.665 24 207.296 24 258.541 24 300 65.717 300 116.704Z"></path><path fill="#000" d="M183.897 117c0 28.793-13.114 54.332-33.897 70.856-20.536-16.274-33.897-42.063-33.897-70.856 0-28.793 13.361-54.33 33.897-70.856C170.536 62.67 183.897 88.207 183.897 117Z"></path></svg>