<svg width="300" height="72" viewBox="0 0 300 72" fill="none" xmlns="http://www.w3.org/2000/svg">
<path d="M0.0830078 36.4454L21.7725 49.2106L43.4619 36.3834L21.7725 0.421875L0.0830078 36.4454Z" fill="black"></path>
<path d="M0.0830078 40.556L21.7725 71.1472V71.1058L43.4824 40.5353L21.7725 53.3419L0.0830078 40.556Z" fill="black"></path>
<path fill-rule="evenodd" clip-rule="evenodd" d="M85.6426 42.5801L85.6641 42.6213C85.748 39.7 84.6748 36.8636 82.6797 34.7286C80.6836 32.5936 77.9248 31.3325 75.0049 31.2195C72.0938 31.3483 69.3496 32.6199 67.3701 34.7583C65.3906 36.8967 64.333 39.7294 64.4287 42.642C64.333 45.5546 65.3906 48.3873 67.3701 50.5255C69.3496 52.664 72.0938 53.9359 75.0049 54.0646C76.8135 54.1355 78.6084 53.7307 80.2109 52.8896C81.8135 52.0485 83.167 50.8011 84.1348 49.2725C84.3762 48.878 84.2862 48.3479 83.9141 48.0717C83.4824 47.7469 82.8415 47.8789 82.5654 48.343C81.749 49.5833 80.626 50.5909 79.3047 51.2678C77.9834 51.9446 76.5088 52.2681 75.0254 52.2057C72.7637 52.0864 70.625 51.134 69.0234 49.5322C67.4209 47.9304 66.4688 45.7924 66.3496 43.5303H84.6934C85.2112 43.5303 85.6426 43.0976 85.6426 42.5801ZM80.9395 35.7159C82.5449 37.3206 83.4922 39.4664 83.5986 41.7332H66.2471C66.3662 39.471 67.3184 37.333 68.9199 35.7313C70.5225 34.1294 72.6602 33.1771 74.9219 33.0578C77.1895 33.1634 79.335 34.1113 80.9395 35.7159Z" fill="black"></path>
<path d="M107.849 31.6738H107.369L103.016 31.6326V24.5476C103.028 23.9736 102.487 23.5203 101.921 23.6388C101.496 23.7256 101.169 24.1328 101.177 24.5683V31.6532H96.4463C95.9571 31.6741 95.5594 32.0773 95.5371 32.5621C95.5304 33.0611 95.9443 33.4827 96.4463 33.4709H101.177V52.8047C101.177 53.3051 101.595 53.7237 102.096 53.7237C102.596 53.7237 103.016 53.3057 103.016 52.8047V33.4916H107.849C108.348 33.5033 108.77 33.0826 108.758 32.5827C108.746 32.0915 108.341 31.6847 107.849 31.6738Z" fill="black"></path>
<path d="M137.945 52.6395V40.9482L137.904 40.9689C137.904 35.9702 134.826 31.2401 129.436 31.2401C127.848 31.2659 126.296 31.7188 124.944 32.551C123.592 33.3834 122.489 34.5645 121.751 35.9702V14.2405C121.751 13.7402 121.332 13.3213 120.832 13.3213C120.331 13.3213 119.912 13.7396 119.912 14.2405V52.6185C119.905 53.1362 120.343 53.5698 120.862 53.5458C121.359 53.5234 121.76 53.0965 121.751 52.5981V43.0345C121.42 37.9945 123.857 33.0578 129.497 33.0578C133.897 33.0578 136.128 37.0031 136.128 40.9482V52.6395C136.116 53.1392 136.538 53.5604 137.037 53.548C137.528 53.5378 137.935 53.1301 137.945 52.6395Z" fill="black"></path>
<path fill-rule="evenodd" clip-rule="evenodd" d="M170.811 42.5801C170.84 42.6388 170.922 40.2966 170.222 38.3516C169.729 36.9849 168.962 35.7336 167.967 34.6749C166.972 33.6161 165.771 32.7723 164.438 32.1955C163.104 31.6187 161.666 31.3211 160.214 31.3211C158.761 31.3211 157.323 31.6187 155.989 32.1955C154.656 32.7723 153.455 33.6161 152.461 34.6749C151.466 35.7336 150.698 36.9849 150.206 38.3516C149.713 39.7183 149.506 41.1714 149.597 42.6213C149.501 45.534 150.558 48.3668 152.538 50.5051C154.518 52.6435 157.261 53.9149 160.172 54.0442C161.982 54.121 163.78 53.7207 165.387 52.8831C166.993 52.0455 168.35 50.8006 169.323 49.2725C169.517 48.9562 169.5 48.529 169.272 48.2369C168.878 47.7356 168.08 47.7981 167.753 48.343C166.938 49.5833 165.813 50.5909 164.492 51.2678C163.171 51.9446 161.697 52.2681 160.214 52.2057C157.951 52.0864 155.813 51.134 154.211 49.5322C152.609 47.9304 151.657 45.7924 151.537 43.5303H169.86C170.38 43.5303 170.811 43.0952 170.811 42.5801ZM166.225 35.5988C167.852 37.2257 168.766 39.4323 168.766 41.7332H151.414C151.414 39.4323 152.328 37.2257 153.955 35.5988C155.582 33.9718 157.789 33.0578 160.09 33.0578C162.391 33.0578 164.598 33.9718 166.225 35.5988Z" fill="black"></path>
<path d="M193.264 32.5414C193.264 31.7828 192.728 31.6297 192.396 31.6532C190.773 31.7947 189.21 32.3392 187.851 33.2374C186.491 34.1354 185.377 35.3588 184.609 36.7964V32.6653C184.618 32.2462 184.327 31.865 183.92 31.764C183.787 31.7311 183.648 31.7285 183.515 31.7565C183.081 31.8444 182.763 32.2418 182.771 32.686V52.66C182.758 53.2356 183.302 53.6867 183.865 53.569C184.293 53.4821 184.617 53.074 184.609 52.6395V43.8607C184.609 38.7175 187.026 34.3178 192.417 33.5328C192.539 33.5251 192.657 33.4931 192.766 33.4387C193.096 33.2746 193.302 32.9086 193.264 32.5414Z" fill="black"></path>
<path fill-rule="evenodd" clip-rule="evenodd" d="M223.547 42.6007C223.547 42.6886 223.635 40.3299 222.938 38.3929C222.444 37.0262 221.677 35.7749 220.683 34.7161C219.688 33.6574 218.486 32.8135 217.153 32.2368C215.819 31.66 214.383 31.3624 212.93 31.3624C211.477 31.3624 210.039 31.66 208.706 32.2368C207.372 32.8135 206.171 33.6574 205.176 34.7161C204.182 35.7749 203.414 37.0262 202.922 38.3929C202.429 39.7596 202.222 41.2128 202.312 42.6627C202.217 45.5753 203.273 48.408 205.254 50.5465C207.233 52.6849 209.977 53.9563 212.888 54.0851C214.696 54.1565 216.492 53.7512 218.094 52.91C219.696 52.069 221.05 50.8215 222.019 49.2932C222.3 48.8335 222.122 48.2108 221.626 47.9919C221.209 47.8057 220.682 47.9738 220.448 48.3636C219.633 49.6039 218.509 50.6119 217.188 51.2888C215.866 51.9656 214.393 52.2886 212.909 52.2262C210.646 52.1069 208.508 51.1545 206.906 49.5528C205.305 47.951 204.353 45.813 204.232 43.5508H222.597C223.113 43.5508 223.547 43.1218 223.547 42.6007ZM218.94 35.64C220.567 37.267 221.481 39.4736 221.481 41.7745H204.13C204.13 39.4736 205.044 37.267 206.671 35.64C208.298 34.0131 210.504 33.0991 212.806 33.0991C215.106 33.0991 217.312 34.0131 218.94 35.64Z" fill="black"></path>
<path d="M253.127 52.7429V32.686C253.105 32.1402 252.619 31.6747 252.065 31.7805C251.634 31.8624 251.313 32.2469 251.31 32.686V40.1633C251.31 46.546 249.884 52.3295 243.688 52.3295C239.287 52.3295 237.057 48.3843 237.057 44.4391V32.686C237.057 32.185 236.638 31.7668 236.137 31.7668C235.637 31.7668 235.218 32.1858 235.218 32.686V44.4184C235.218 49.4171 238.233 54.147 243.688 54.147C245.318 54.0966 246.902 53.582 248.252 52.6635C249.603 51.7455 250.663 50.4617 251.31 48.9626V52.7429C251.297 53.2425 251.719 53.6636 252.219 53.6513C252.709 53.6412 253.117 53.233 253.127 52.7429Z" fill="black"></path>
<path d="M299.563 52.7014V40.9482L299.584 40.9896C299.584 35.9909 296.506 31.3433 291.115 31.3433C289.312 31.3888 287.565 31.9688 286.095 33.0096C284.623 34.0505 283.495 35.5052 282.853 37.1889C282.34 35.5121 281.307 34.0419 279.902 32.9911C278.499 31.9402 276.797 31.3632 275.044 31.3433C273.462 31.3588 271.913 31.8005 270.561 32.622C269.208 33.4435 268.103 34.6145 267.359 36.0116V32.6653C267.372 32.0897 266.82 31.6402 266.265 31.7565C265.832 31.8449 265.51 32.244 265.521 32.686V52.7838C265.509 53.3596 266.061 53.8088 266.616 53.6927C267.051 53.6039 267.368 53.2067 267.359 52.7633V43.4683C267.153 37.5401 269.467 33.1404 275.044 33.1404C279.444 33.1404 281.675 37.0031 281.675 40.9482V52.7219C281.663 53.2215 282.082 53.6434 282.584 53.6309C283.074 53.6196 283.482 53.2129 283.492 52.7219V43.6541C283.492 39.0479 285.6 33.1404 291.115 33.1404C295.515 33.1404 297.745 37.0031 297.745 40.9482V52.7014C297.737 53.2015 298.153 53.6209 298.654 53.6104C299.146 53.5991 299.551 53.1923 299.563 52.7014Z" fill="black"></path>
</svg>