<svg xmlns="http://www.w3.org/2000/svg" width="300" height="98" fill="none" viewBox="0 0 300 98"><path fill="#000" d="m113.874 2.581.204-.486v.486h-.204ZM74.757 95.907l39.117-93.326H88.35L63.107 66.257l-10.194-54.44c-.971-6.32-5.826-9.722-11.165-9.722H.485L0 5.011C8.252 6.47 17.961 9.872 23.786 12.79c3.398 1.944 4.855 3.888 5.826 8.263l19.417 74.855h25.728ZM192.369 38.736c9.815 5.123 22.194 11.586 22.194 26.549-.485 19.443-16.99 32.08-42.233 32.08-10.68 0-20.874-2.43-26.699-4.86L150 72.09l.248.113c5.317 2.421 12.56 5.72 24.509 5.72 7.282 0 14.563-2.917 14.563-9.236 0-4.374-3.398-7.29-12.621-11.666-9.223-4.374-21.359-11.665-21.359-25.276 0-18.47 16.99-31.108 40.777-31.108 9.708 0 16.99 2.43 22.815 4.374l-4.369 19.93c-10.68-5.347-20.388-4.861-23.786-4.375-6.796.972-10.194 4.375-10.194 7.777 0 4.24 5.34 7.027 11.786 10.393Z"></path><path fill="#000" fill-rule="evenodd" d="M300 95.907h-22.33l-3.398-14.096h-31.068l-4.854 14.096h-25.243L249.515 8.9c1.456-3.889 5.339-6.805 10.194-6.805h20.874L300 95.907Zm-36.893-68.05-12.622 34.997h19.903l-7.281-34.997Z" clip-rule="evenodd"></path><path fill="#000" d="m128.641 95.907 19.903-93.812h-24.272l-19.903 93.812h24.272Z"></path></svg>