<svg width="300" height="97" viewBox="0 0 300 97" fill="none" xmlns="http://www.w3.org/2000/svg">
<path d="M47.0845 53.3384V53.3513C56.8169 52.913 64.0824 51.2112 64.0824 49.1742C64.0824 47.1372 56.8233 45.4355 47.0845 44.9971V51.6495C46.8019 51.6753 45.2858 51.8042 42.2537 51.8042C39.7291 51.8042 37.8982 51.6947 37.2623 51.6495V44.9907C27.5107 45.4226 20.2259 47.1308 20.2259 49.1678C20.2259 51.2112 27.5042 52.913 37.2623 53.3449V53.3384C37.8918 53.3707 39.6713 53.4416 42.2087 53.4416C45.3822 53.4416 46.8083 53.3578 47.0845 53.3384Z" fill="black"></path>
<path fill-rule="evenodd" clip-rule="evenodd" d="M82.7826 49.6448C82.7826 71.7886 64.8932 89.7397 42.8255 89.7397C20.7577 89.7397 2.86829 71.7886 2.86829 49.6448C2.86829 27.5009 20.7577 9.5498 42.8255 9.5498C64.8932 9.5498 82.7826 27.5009 82.7826 49.6448ZM47.0845 38.3512V44.3074L47.091 44.3138C58.1145 44.8231 66.4015 47.0212 66.4015 49.6448C66.4015 52.2748 58.1145 54.4665 47.091 54.9757V74.0692H37.2687V54.9757C26.2323 54.4601 17.9261 52.2684 17.9261 49.6383C17.9261 47.0083 26.2259 44.8166 37.2687 44.3074V38.3512H23.682V29.2686H60.6713V38.3512H47.0845Z" fill="black"></path>
<path d="M116.724 31.7506V41.3812H126.051V48.6073H116.66V63.2593C116.66 66.4953 118.439 68.0746 121.047 68.0746C122.351 68.0746 123.861 67.6621 125.094 67.0432L127.426 74.1984C125.03 75.1589 123.039 75.5715 120.501 75.6424C113.165 75.9196 108.366 71.7231 108.366 63.2593V48.6073H102.058V41.3812H108.366V32.6466L116.724 31.7506ZM277.535 40.9299L278.152 44.8492C280.76 40.6527 284.255 40.0339 287.685 40.0339C291.18 40.0339 294.54 41.4069 296.39 43.2634L292.619 50.554C290.904 49.1101 289.33 48.3494 286.587 48.3494C282.199 48.3494 278.152 50.6894 278.152 56.9486V74.8366H269.788V40.917L277.535 40.9299ZM257.036 53.9318C256.49 49.5291 253.06 47.3245 248.261 47.3245C243.739 47.3245 240.032 49.5291 238.799 53.9318H257.036ZM238.664 60.8807C239.21 65.0772 242.846 68.1068 248.743 68.1068C251.827 68.1068 255.874 66.9336 257.794 64.9418L263.139 70.2405C259.574 73.9535 253.747 75.7455 248.602 75.7455C236.949 75.7455 230.017 68.5194 230.017 57.6512C230.017 47.3309 237.013 39.8985 247.985 39.8985C259.298 39.8985 266.364 46.9184 265.06 60.8807H238.664ZM201.777 26.684V45.5325C204.797 41.6132 208.497 40.44 212.338 40.44C221.936 40.44 226.188 46.9764 226.188 56.955V74.8431H217.824V57.0259C217.824 50.8312 214.6 48.2205 210.141 48.2205C205.201 48.2205 201.777 52.4169 201.777 57.5094V74.8495H193.413V26.6904L201.777 26.684ZM179.563 31.3639V40.9944H188.891V48.2205H179.499V62.8726C179.499 66.1085 181.285 67.6878 183.886 67.6878C185.191 67.6878 186.7 67.2753 187.934 66.6565L190.266 73.8117C187.869 74.7721 185.878 75.1847 183.34 75.2556C176.004 75.5328 171.206 71.3299 171.206 62.8726V48.2205H164.897V40.9944H171.206V32.2599L179.563 31.3639ZM156.456 53.9318C155.91 49.5291 152.48 47.3245 147.681 47.3245C143.158 47.3245 139.452 49.5291 138.218 53.9318H156.456ZM138.083 60.8807C138.63 65.0772 142.266 68.1068 148.163 68.1068C151.246 68.1068 155.293 66.9336 157.214 64.9418L162.559 70.2405C158.994 73.9535 153.167 75.7455 148.021 75.7455C136.362 75.7455 129.437 68.5194 129.437 57.6512C129.437 47.3309 136.433 39.8985 147.398 39.8985C158.711 39.8985 165.771 46.9184 164.473 60.8807H138.083Z" fill="black"></path>
</svg>