<svg width="16" height="16" viewBox="0 0 16 16" fill="none" xmlns="http://www.w3.org/2000/svg">
<path fill-rule="evenodd" clip-rule="evenodd" d="M8 0C3.5817 0 0 3.5817 0 8C0 12.4183 3.5817 16 8 16C12.4183 16 16 12.4183 16 8C16 3.5817 12.4183 0 8 0ZM8 2.2857C4.8441 2.2857 2.2857 4.8441 2.2857 8C2.2857 11.1559 4.8441 13.7143 8 13.7143C11.1559 13.7143 13.7143 11.1559 13.7143 8C13.7143 4.8441 11.1559 2.2857 8 2.2857Z" fill="currentColor"></path>
<path d="M7.69904 3.98048C7.82894 3.74218 8.17114 3.74218 8.30104 3.98048L9.34624 5.89698C9.39554 5.98738 9.48294 6.05088 9.58414 6.06978L11.7298 6.47158C11.9965 6.52158 12.1022 6.84698 11.9158 7.04418L10.4161 8.63038C10.3453 8.70528 10.312 8.80798 10.3252 8.91008L10.6061 11.0749C10.641 11.344 10.3643 11.5451 10.1191 11.4288L8.14704 10.4926C8.05404 10.4485 7.94604 10.4485 7.85304 10.4926L5.88094 11.4288C5.63574 11.5451 5.35904 11.344 5.39394 11.0749L5.67484 8.91008C5.68804 8.80798 5.65474 8.70528 5.58394 8.63038L4.08424 7.04418C3.89784 6.84698 4.00354 6.52158 4.27024 6.47158L6.41594 6.06978C6.51714 6.05088 6.60454 5.98738 6.65384 5.89698L7.69904 3.98048Z" fill="currentColor"></path>
</svg>