<svg width="156" height="27" viewBox="0 0 156 27" fill="none" xmlns="http://www.w3.org/2000/svg">
<path d="M22.8776 5.58772C21.1058 3.78081 20.1033 2.75848 18.3315 0.951567H4.0871C2.31529 2.75848 1.31282 3.78081 -0.458984 5.58772V26.4623H6.31352V18.8186H16.1284V26.4623H22.9009L22.8776 5.58772ZM16.1167 12.5895H6.30186V7.25199H16.1167V12.5895Z" fill="url(#svg-86b651)"></path>
<path d="M102.539 5.58772C100.767 3.78081 99.7649 2.75848 97.9931 0.951567H83.7487C81.9769 2.75848 80.9744 3.78081 79.2026 5.58772V26.4623H85.9751V18.8186H95.79V26.4623H102.562L102.539 5.58772ZM95.7783 12.5895H85.9634V7.25199H95.7783V12.5895Z" fill="url(#svg-18720)"></path>
<path d="M155.518 5.58772C153.746 3.78081 152.743 2.75848 150.972 0.951567H136.727C134.955 2.75848 133.953 3.78081 132.181 5.58772V26.4623H138.954V18.8186H148.769V26.4623H155.541L155.518 5.58772ZM148.757 12.5895H138.942V7.25199H148.757V12.5895Z" fill="url(#svg-233da3)"></path>
<path d="M40.3975 17.6896V18.0818H44.8853L49.443 22.7299V26.4745H42.6705V24.513H38.1827L33.625 19.865V15.7638C35.4084 13.945 36.3993 12.9345 38.1827 11.1157H42.7405V7.21658H31.857V8.16066L34.1301 10.4787V12.6898L31.857 15.0079V26.4626H26.1298V0.939941H44.9436C46.7154 2.74685 47.7178 3.76918 49.5013 5.58798V12.9702L44.8736 17.6896H40.3975Z" fill="url(#svg-77c26b)"></path>
<path d="M68.0579 7.84662V10.4143H71.3683C73.1635 12.245 74.1659 13.2674 75.9494 15.0862V26.4507H69.5266V17.3091H59.5252V26.4507H52.7527V0.939941H59.5252V10.4143H61.297V5.43345C62.1596 4.55377 62.824 3.87618 63.5001 3.1867C64.1646 2.50911 64.8406 1.81962 65.7032 0.939941H75.9494V7.84662H68.0579Z" fill="url(#svg-73d956)"></path>
<path d="M124.488 0.951567H105.803V26.4623H124.488C126.225 24.6911 127.193 23.7044 128.918 21.945V5.46885C127.181 3.6976 126.214 2.71093 124.488 0.951567ZM122.145 19.5675H112.564V7.85826H122.145V19.5675Z" fill="url(#svg-494cde)"></path>
<defs>
<linearGradient id="svg-86b651" x1="-0.458985" y1="26.6265" x2="155.694" y2="1.90418" gradientUnits="userSpaceOnUse">
<stop stop-color="#00B6EF"></stop>
<stop offset="1" stop-color="#75ACFF"></stop>
</linearGradient>
<linearGradient id="svg-18720" x1="-0.458985" y1="26.6265" x2="155.694" y2="1.90418" gradientUnits="userSpaceOnUse">
<stop stop-color="#00B6EF"></stop>
<stop offset="1" stop-color="#75ACFF"></stop>
</linearGradient>
<linearGradient id="svg-233da3" x1="-0.458985" y1="26.6265" x2="155.694" y2="1.90418" gradientUnits="userSpaceOnUse">
<stop stop-color="#00B6EF"></stop>
<stop offset="1" stop-color="#75ACFF"></stop>
</linearGradient>
<linearGradient id="svg-77c26b" x1="-0.458985" y1="26.6265" x2="155.694" y2="1.90418" gradientUnits="userSpaceOnUse">
<stop stop-color="#00B6EF"></stop>
<stop offset="1" stop-color="#75ACFF"></stop>
</linearGradient>
<linearGradient id="svg-73d956" x1="-0.458985" y1="26.6265" x2="155.694" y2="1.90418" gradientUnits="userSpaceOnUse">
<stop stop-color="#00B6EF"></stop>
<stop offset="1" stop-color="#75ACFF"></stop>
</linearGradient>
<linearGradient id="svg-494cde" x1="-0.458985" y1="26.6265" x2="155.694" y2="1.90418" gradientUnits="userSpaceOnUse">
<stop stop-color="#00B6EF"></stop>
<stop offset="1" stop-color="#75ACFF"></stop>
</linearGradient>
</defs>
</svg>